<?xml version="1.0" encoding="us-ascii" standalone="no"?><svg xmlns="http://www.w3.org/2000/svg" xmlns:xlink="http://www.w3.org/1999/xlink" contentStyleType="text/css" height="544px" preserveAspectRatio="none" style="width:642px;height:544px;background:#FFFFFF;" version="1.1" viewBox="0 0 642 544" width="642px" zoomAndPan="magnify"><defs/><g><!--class Car--><g id="elem_Car"><rect codeLine="2" fill="#F1F1F1" height="181.4754" id="Car" rx="2.5" ry="2.5" style="stroke:#181818;stroke-width:0.5;" width="242" x="7" y="356"/><ellipse cx="112.25" cy="372" fill="#ADD1B2" rx="11" ry="11" style="stroke:#181818;stroke-width:1.0;"/><path d="M115.2188,377.6406 Q114.6406,377.9375 114,378.0781 Q113.3594,378.2344 112.6563,378.2344 Q110.1563,378.2344 108.8281,376.5938 Q107.5156,374.9375 107.5156,371.8125 Q107.5156,368.6875 108.8281,367.0313 Q110.1563,365.375 112.6563,365.375 Q113.3594,365.375 114,365.5313 Q114.6563,365.6875 115.2188,365.9844 L115.2188,368.7031 Q114.5938,368.125 114,367.8594 Q113.4063,367.5781 112.7813,367.5781 Q111.4375,367.5781 110.75,368.6563 Q110.0625,369.7188 110.0625,371.8125 Q110.0625,373.9063 110.75,374.9844 Q111.4375,376.0469 112.7813,376.0469 Q113.4063,376.0469 114,375.7813 Q114.5938,375.5 115.2188,374.9219 L115.2188,377.6406 Z " fill="#000000"/><text fill="#000000" font-family="sans-serif" font-size="14" lengthAdjust="spacing" textLength="23" x="132.75" y="377.432">Car</text><line style="stroke:#181818;stroke-width:0.5;" x1="8" x2="248" y1="388" y2="388"/><rect fill="none" height="6" style="stroke:#C82930;stroke-width:1.0;" width="6" x="15" y="400.034"/><text fill="#000000" font-family="sans-serif" font-size="14" lengthAdjust="spacing" textLength="81" x="27" y="406.9659">type : string</text><rect fill="none" height="6" style="stroke:#C82930;stroke-width:1.0;" width="6" x="15" y="419.1019"/><text fill="#000000" font-family="sans-serif" font-size="14" lengthAdjust="spacing" textLength="99" x="27" y="426.0339">engine : string</text><rect fill="none" height="6" style="stroke:#C82930;stroke-width:1.0;" width="6" x="15" y="438.1698"/><text fill="#000000" font-family="sans-serif" font-size="14" lengthAdjust="spacing" textLength="99" x="27" y="445.1018">wheels : string</text><line style="stroke:#181818;stroke-width:0.5;" x1="8" x2="248" y1="453.2038" y2="453.2038"/><ellipse cx="18" cy="468.2377" fill="#84BE84" rx="3" ry="3" style="stroke:#038048;stroke-width:1.0;"/><text fill="#000000" font-family="sans-serif" font-size="14" lengthAdjust="spacing" textLength="181" x="27" y="472.1697">setType(type : string) : void</text><ellipse cx="18" cy="487.3056" fill="#84BE84" rx="3" ry="3" style="stroke:#038048;stroke-width:1.0;"/><text fill="#000000" font-family="sans-serif" font-size="14" lengthAdjust="spacing" textLength="214" x="27" y="491.2376">setEngine(engine : string) : void</text><ellipse cx="18" cy="506.3735" fill="#84BE84" rx="3" ry="3" style="stroke:#038048;stroke-width:1.0;"/><text fill="#000000" font-family="sans-serif" font-size="14" lengthAdjust="spacing" textLength="216" x="27" y="510.3055">setWheels(wheels : string) : void</text><ellipse cx="18" cy="525.4415" fill="#84BE84" rx="3" ry="3" style="stroke:#038048;stroke-width:1.0;"/><text fill="#000000" font-family="sans-serif" font-size="14" lengthAdjust="spacing" textLength="83" x="27" y="529.3734">show() : void</text></g><!--class CarBuilder--><g id="elem_CarBuilder"><rect codeLine="12" fill="#F1F1F1" height="124.2717" id="CarBuilder" rx="2.5" ry="2.5" style="stroke:#181818;stroke-width:0.5;" width="158" x="284" y="172"/><ellipse cx="325.55" cy="188" fill="#A9DCDF" rx="11" ry="11" style="stroke:#181818;stroke-width:1.0;"/><path d="M325.6594,183.3438 L324.5031,188.4219 L326.8313,188.4219 L325.6594,183.3438 Z M324.175,181.1094 L327.1594,181.1094 L330.5188,193.5 L328.0656,193.5 L327.3,190.4375 L324.0188,190.4375 L323.2688,193.5 L320.8313,193.5 L324.175,181.1094 Z " fill="#000000"/><text fill="#000000" font-family="sans-serif" font-size="14" font-style="italic" lengthAdjust="spacing" textLength="67" x="345.45" y="193.432">CarBuilder</text><line style="stroke:#181818;stroke-width:0.5;" x1="285" x2="441" y1="204" y2="204"/><rect fill="none" height="6" style="stroke:#C82930;stroke-width:1.0;" width="6" x="292" y="216.034"/><text fill="#000000" font-family="sans-serif" font-size="14" lengthAdjust="spacing" textLength="56" x="304" y="222.9659">car : Car</text><line style="stroke:#181818;stroke-width:0.5;" x1="285" x2="441" y1="231.0679" y2="231.0679"/><ellipse cx="295" cy="246.1019" fill="#84BE84" rx="3" ry="3" style="stroke:#038048;stroke-width:1.0;"/><text fill="#000000" font-family="sans-serif" font-size="14" lengthAdjust="spacing" textLength="130" x="304" y="250.0339">buildEngine() : void</text><ellipse cx="295" cy="265.1698" fill="#84BE84" rx="3" ry="3" style="stroke:#038048;stroke-width:1.0;"/><text fill="#000000" font-family="sans-serif" font-size="14" lengthAdjust="spacing" textLength="132" x="304" y="269.1018">buildWheels() : void</text><ellipse cx="295" cy="284.2377" fill="#84BE84" rx="3" ry="3" style="stroke:#038048;stroke-width:1.0;"/><text fill="#000000" font-family="sans-serif" font-size="14" lengthAdjust="spacing" textLength="88" x="304" y="288.1697">getCar() : Car</text></g><!--class FordBuilder--><g id="elem_FordBuilder"><rect codeLine="19" fill="#F1F1F1" height="86.1358" id="FordBuilder" rx="2.5" ry="2.5" style="stroke:#181818;stroke-width:0.5;" width="158" x="284" y="403.5"/><ellipse cx="320.15" cy="419.5" fill="#ADD1B2" rx="11" ry="11" style="stroke:#181818;stroke-width:1.0;"/><path d="M323.1188,425.1406 Q322.5406,425.4375 321.9,425.5781 Q321.2594,425.7344 320.5563,425.7344 Q318.0563,425.7344 316.7281,424.0938 Q315.4156,422.4375 315.4156,419.3125 Q315.4156,416.1875 316.7281,414.5313 Q318.0563,412.875 320.5563,412.875 Q321.2594,412.875 321.9,413.0313 Q322.5563,413.1875 323.1188,413.4844 L323.1188,416.2031 Q322.4938,415.625 321.9,415.3594 Q321.3063,415.0781 320.6813,415.0781 Q319.3375,415.0781 318.65,416.1563 Q317.9625,417.2188 317.9625,419.3125 Q317.9625,421.4063 318.65,422.4844 Q319.3375,423.5469 320.6813,423.5469 Q321.3063,423.5469 321.9,423.2813 Q322.4938,423 323.1188,422.4219 L323.1188,425.1406 Z " fill="#000000"/><text fill="#000000" font-family="sans-serif" font-size="14" lengthAdjust="spacing" textLength="79" x="338.85" y="424.932">FordBuilder</text><line style="stroke:#181818;stroke-width:0.5;" x1="285" x2="441" y1="435.5" y2="435.5"/><line style="stroke:#181818;stroke-width:0.5;" x1="285" x2="441" y1="443.5" y2="443.5"/><ellipse cx="295" cy="458.534" fill="#84BE84" rx="3" ry="3" style="stroke:#038048;stroke-width:1.0;"/><text fill="#000000" font-family="sans-serif" font-size="14" lengthAdjust="spacing" textLength="130" x="304" y="462.4659">buildEngine() : void</text><ellipse cx="295" cy="477.6019" fill="#84BE84" rx="3" ry="3" style="stroke:#038048;stroke-width:1.0;"/><text fill="#000000" font-family="sans-serif" font-size="14" lengthAdjust="spacing" textLength="132" x="304" y="481.5339">buildWheels() : void</text></g><!--class VWBuilder--><g id="elem_VWBuilder"><rect codeLine="24" fill="#F1F1F1" height="86.1358" id="VWBuilder" rx="2.5" ry="2.5" style="stroke:#181818;stroke-width:0.5;" width="158" x="477" y="403.5"/><ellipse cx="517.2" cy="419.5" fill="#ADD1B2" rx="11" ry="11" style="stroke:#181818;stroke-width:1.0;"/><path d="M520.1688,425.1406 Q519.5906,425.4375 518.95,425.5781 Q518.3094,425.7344 517.6063,425.7344 Q515.1063,425.7344 513.7781,424.0938 Q512.4656,422.4375 512.4656,419.3125 Q512.4656,416.1875 513.7781,414.5313 Q515.1063,412.875 517.6063,412.875 Q518.3094,412.875 518.95,413.0313 Q519.6063,413.1875 520.1688,413.4844 L520.1688,416.2031 Q519.5438,415.625 518.95,415.3594 Q518.3563,415.0781 517.7313,415.0781 Q516.3875,415.0781 515.7,416.1563 Q515.0125,417.2188 515.0125,419.3125 Q515.0125,421.4063 515.7,422.4844 Q516.3875,423.5469 517.7313,423.5469 Q518.3563,423.5469 518.95,423.2813 Q519.5438,423 520.1688,422.4219 L520.1688,425.1406 Z " fill="#000000"/><text fill="#000000" font-family="sans-serif" font-size="14" lengthAdjust="spacing" textLength="70" x="536.8" y="424.932">VWBuilder</text><line style="stroke:#181818;stroke-width:0.5;" x1="478" x2="634" y1="435.5" y2="435.5"/><line style="stroke:#181818;stroke-width:0.5;" x1="478" x2="634" y1="443.5" y2="443.5"/><ellipse cx="488" cy="458.534" fill="#84BE84" rx="3" ry="3" style="stroke:#038048;stroke-width:1.0;"/><text fill="#000000" font-family="sans-serif" font-size="14" lengthAdjust="spacing" textLength="130" x="497" y="462.4659">buildEngine() : void</text><ellipse cx="488" cy="477.6019" fill="#84BE84" rx="3" ry="3" style="stroke:#038048;stroke-width:1.0;"/><text fill="#000000" font-family="sans-serif" font-size="14" lengthAdjust="spacing" textLength="132" x="497" y="481.5339">buildWheels() : void</text></g><!--class Orchestrator--><g id="elem_Orchestrator"><rect codeLine="29" fill="#F1F1F1" height="105.2038" id="Orchestrator" rx="2.5" ry="2.5" style="stroke:#181818;stroke-width:0.5;" width="253" x="236.5" y="7"/><ellipse cx="315.75" cy="23" fill="#ADD1B2" rx="11" ry="11" style="stroke:#181818;stroke-width:1.0;"/><path d="M318.7188,28.6406 Q318.1406,28.9375 317.5,29.0781 Q316.8594,29.2344 316.1563,29.2344 Q313.6563,29.2344 312.3281,27.5938 Q311.0156,25.9375 311.0156,22.8125 Q311.0156,19.6875 312.3281,18.0313 Q313.6563,16.375 316.1563,16.375 Q316.8594,16.375 317.5,16.5313 Q318.1563,16.6875 318.7188,16.9844 L318.7188,19.7031 Q318.0938,19.125 317.5,18.8594 Q316.9063,18.5781 316.2813,18.5781 Q314.9375,18.5781 314.25,19.6563 Q313.5625,20.7188 313.5625,22.8125 Q313.5625,24.9063 314.25,25.9844 Q314.9375,27.0469 316.2813,27.0469 Q316.9063,27.0469 317.5,26.7813 Q318.0938,26.5 318.7188,25.9219 L318.7188,28.6406 Z " fill="#000000"/><text fill="#000000" font-family="sans-serif" font-size="14" lengthAdjust="spacing" textLength="86" x="336.25" y="28.432">Orchestrator</text><line style="stroke:#181818;stroke-width:0.5;" x1="237.5" x2="488.5" y1="39" y2="39"/><rect fill="none" height="6" style="stroke:#C82930;stroke-width:1.0;" width="6" x="244.5" y="51.034"/><text fill="#000000" font-family="sans-serif" font-size="14" lengthAdjust="spacing" textLength="133" x="256.5" y="57.9659">builder : CarBuilder</text><line style="stroke:#181818;stroke-width:0.5;" x1="237.5" x2="488.5" y1="66.0679" y2="66.0679"/><ellipse cx="247.5" cy="81.1019" fill="#84BE84" rx="3" ry="3" style="stroke:#038048;stroke-width:1.0;"/><text fill="#000000" font-family="sans-serif" font-size="14" lengthAdjust="spacing" textLength="227" x="256.5" y="85.0339">Orchestrator(builder : CarBuilder)</text><ellipse cx="247.5" cy="100.1698" fill="#84BE84" rx="3" ry="3" style="stroke:#038048;stroke-width:1.0;"/><text fill="#000000" font-family="sans-serif" font-size="14" lengthAdjust="spacing" textLength="108" x="256.5" y="104.1018">createCar() : Car</text></g><!--reverse link CarBuilder to FordBuilder--><g id="link_CarBuilder_FordBuilder"><path codeLine="36" d="M363,314.17 C363,348.52 363,372.52 363,403.22 " fill="none" id="CarBuilder-backto-FordBuilder" style="stroke:#181818;stroke-width:1.0;"/><polygon fill="none" points="363,296.17,357,314.17,369,314.17,363,296.17" style="stroke:#181818;stroke-width:1.0;"/></g><!--reverse link CarBuilder to VWBuilder--><g id="link_CarBuilder_VWBuilder"><path codeLine="37" d="M431.2457,309.4364 C462.7457,343.7864 489.09,372.52 517.23,403.22 " fill="none" id="CarBuilder-backto-VWBuilder" style="stroke:#181818;stroke-width:1.0;"/><polygon fill="none" points="419.08,296.17,426.8235,313.4916,435.6678,305.3811,419.08,296.17" style="stroke:#181818;stroke-width:1.0;"/></g><!--reverse link Orchestrator to CarBuilder--><g id="link_Orchestrator_CarBuilder"><path codeLine="38" d="M363,124.26 C363,143.01 363,152.37 363,171.86 " fill="none" id="Orchestrator-backto-CarBuilder" style="stroke:#181818;stroke-width:1.0;"/><polygon fill="#181818" points="363,112.26,359,118.26,363,124.26,367,118.26,363,112.26" style="stroke:#181818;stroke-width:1.0;"/></g><!--link CarBuilder to Car--><g id="link_CarBuilder_Car"><path codeLine="39" d="M294.71,296.17 C273.84,314.86 254.9194,331.817 232.3994,351.987 " fill="none" id="CarBuilder-to-Car" style="stroke:#181818;stroke-width:1.0;"/><polygon fill="#181818" points="227.93,355.99,237.3028,352.9651,231.6545,352.6541,231.9654,347.0058,227.93,355.99" style="stroke:#181818;stroke-width:1.0;"/></g><!--SRC=[hP313i8W44JlV0L7gk476kD1erSlnfuftRGaJMi0ROpwxm9Y2zIBYJqrEyERtU4jKmflcSHtXCr7iRwT0UTOQIcwsi-WgqKtcmuDGAlYwH8hq4U3814dCt_NNbIJP-UG927FVOKB8KbMwclwWOop9qAiD3x6DUQV-pONqLOmdSdDoRaLFAAqkbygeJl9xv58DMY3S5EBCidlm7qlgpZnzuGHTYh-XZf8te2jHlUMvhieFJuFYlAuy07vvikyaKjW6f8oWjvN3qh3McRQU2MAbbmOATWgU4NfskMy0000]--></g></svg>